<svg width="204.36" height="30.081" viewBox="0 0 204.36 30.081" xmlns="http://www.w3.org/2000/svg"><g id="svgGroup" stroke-linecap="round" fill-rule="evenodd" font-size="9pt" stroke="#000" stroke-width="0.25mm" fill="black" style="stroke:#000;stroke-width:0.25mm;fill:black"><path d="M 0 27.24 L 1.92 24.04 Q 3.36 25.24 5.16 26 A 9.339 9.339 0 0 0 7.308 26.604 A 12.847 12.847 0 0 0 9.36 26.76 A 11.192 11.192 0 0 0 11.179 26.621 Q 12.148 26.462 12.933 26.117 A 5.48 5.48 0 0 0 13.92 25.56 Q 15.6 24.36 15.6 22.32 Q 15.6 21.16 15.12 20.26 Q 14.64 19.36 13.26 18.5 A 12.842 12.842 0 0 0 12.271 17.949 Q 11.043 17.328 9.2 16.64 A 36.165 36.165 0 0 1 7.357 15.868 Q 6.454 15.457 5.704 15.045 A 15.798 15.798 0 0 1 4.6 14.38 A 8.773 8.773 0 0 1 3.364 13.401 Q 2.579 12.647 2.14 11.78 A 6.667 6.667 0 0 1 1.532 9.911 A 9.171 9.171 0 0 1 1.4 8.32 Q 1.4 6.32 2.5 4.7 A 6.871 6.871 0 0 1 4.281 2.925 A 9.354 9.354 0 0 1 5.74 2.1 Q 7.679 1.212 10.357 1.129 A 18.092 18.092 0 0 1 10.92 1.12 Q 13.4 1.12 15.38 1.62 Q 17.36 2.12 19.24 3.04 L 17.84 6.28 A 12.598 12.598 0 0 0 16.19 5.472 A 16.674 16.674 0 0 0 14.66 4.94 Q 12.84 4.4 10.84 4.4 A 10.875 10.875 0 0 0 9.228 4.512 Q 8.375 4.64 7.68 4.915 A 5.047 5.047 0 0 0 6.68 5.44 Q 5.16 6.48 5.16 8.12 A 4.186 4.186 0 0 0 5.277 9.129 A 3.425 3.425 0 0 0 5.6 9.96 A 2.765 2.765 0 0 0 6.027 10.53 Q 6.507 11.033 7.34 11.52 A 13.201 13.201 0 0 0 8.226 11.989 Q 9.412 12.565 11.24 13.24 A 32.491 32.491 0 0 1 13.231 14.052 Q 14.986 14.84 16.18 15.68 A 10.417 10.417 0 0 1 17.396 16.671 Q 18.028 17.276 18.451 17.925 A 5.692 5.692 0 0 1 18.76 18.46 A 7.031 7.031 0 0 1 19.456 20.805 A 8.862 8.862 0 0 1 19.52 21.88 A 8.684 8.684 0 0 1 19.253 24.08 A 6.842 6.842 0 0 1 18.22 26.32 A 7.847 7.847 0 0 1 15.447 28.729 A 9.743 9.743 0 0 1 14.62 29.12 A 12.209 12.209 0 0 1 11.656 29.922 A 16.011 16.011 0 0 1 9.36 30.08 A 18.947 18.947 0 0 1 6.25 29.835 A 15.22 15.22 0 0 1 4.04 29.3 A 15.282 15.282 0 0 1 1.893 28.427 A 11.373 11.373 0 0 1 0 27.24 Z M 118.72 29.6 L 114.92 29.6 L 114.92 1.6 L 131.52 1.6 L 131.52 4.88 L 118.72 4.88 L 118.72 13.44 L 129.4 13.44 L 129.4 16.56 L 118.72 16.56 L 118.72 29.6 Z M 204.24 20.68 L 189.68 20.68 Q 190.015 23.4 191.496 25.01 A 5.992 5.992 0 0 0 191.72 25.24 A 5.658 5.658 0 0 0 194.77 26.764 A 8.008 8.008 0 0 0 196.16 26.88 Q 197.96 26.88 199.4 26.5 Q 200.84 26.12 202.16 25.52 L 203 28.6 Q 201.56 29.24 199.76 29.66 A 15.566 15.566 0 0 1 197.723 29.988 A 20.81 20.81 0 0 1 195.72 30.08 A 11.327 11.327 0 0 1 192.622 29.678 A 8.443 8.443 0 0 1 188.62 27.22 Q 186.297 24.684 186.034 20.34 A 18.85 18.85 0 0 1 186 19.2 Q 186 16.08 187.18 13.62 A 9.857 9.857 0 0 1 189.186 10.787 A 9.155 9.155 0 0 1 190.48 9.74 A 8.419 8.419 0 0 1 194.584 8.351 A 10.482 10.482 0 0 1 195.4 8.32 Q 198.114 8.32 199.994 9.384 A 6.885 6.885 0 0 1 200.38 9.62 Q 202.36 10.92 203.36 13.12 Q 204.36 15.32 204.36 17.96 A 30.081 30.081 0 0 1 204.244 20.639 A 27.836 27.836 0 0 1 204.24 20.68 Z M 76.12 10.48 L 76.12 8.8 L 79.4 8.8 L 79.4 24.56 Q 79.4 26.08 80.14 26.54 Q 80.88 27 81.76 27 L 81 29.8 A 7.089 7.089 0 0 1 79.294 29.611 Q 77.039 29.051 76.401 26.832 A 5.436 5.436 0 0 1 76.36 26.68 A 8.523 8.523 0 0 1 75.116 28.05 A 11.399 11.399 0 0 1 73.86 29.02 A 5.971 5.971 0 0 1 71.879 29.861 Q 71.072 30.051 70.131 30.076 A 10.882 10.882 0 0 1 69.84 30.08 Q 67.24 30.08 65.12 28.76 A 9.179 9.179 0 0 1 62.155 25.749 A 11.169 11.169 0 0 1 61.74 25.02 A 10.891 10.891 0 0 1 60.688 21.843 A 14.658 14.658 0 0 1 60.48 19.32 A 13.257 13.257 0 0 1 60.879 16.013 A 11.187 11.187 0 0 1 61.74 13.72 Q 63 11.24 65.22 9.78 A 8.919 8.919 0 0 1 69.698 8.337 A 10.955 10.955 0 0 1 70.32 8.32 A 9.034 9.034 0 0 1 72.237 8.516 A 7.481 7.481 0 0 1 73.58 8.94 A 10.401 10.401 0 0 1 75.295 9.857 A 8.841 8.841 0 0 1 76.12 10.48 Z M 162.2 10.48 L 162.2 8.8 L 165.48 8.8 L 165.48 24.56 Q 165.48 26.08 166.22 26.54 Q 166.96 27 167.84 27 L 167.08 29.8 A 7.089 7.089 0 0 1 165.374 29.611 Q 163.119 29.051 162.481 26.832 A 5.436 5.436 0 0 1 162.44 26.68 A 8.523 8.523 0 0 1 161.196 28.05 A 11.399 11.399 0 0 1 159.94 29.02 A 5.971 5.971 0 0 1 157.959 29.861 Q 157.152 30.051 156.211 30.076 A 10.882 10.882 0 0 1 155.92 30.08 Q 153.32 30.08 151.2 28.76 A 9.179 9.179 0 0 1 148.235 25.749 A 11.169 11.169 0 0 1 147.82 25.02 A 10.891 10.891 0 0 1 146.768 21.843 A 14.658 14.658 0 0 1 146.56 19.32 A 13.257 13.257 0 0 1 146.959 16.013 A 11.187 11.187 0 0 1 147.82 13.72 Q 149.08 11.24 151.3 9.78 A 8.919 8.919 0 0 1 155.778 8.337 A 10.955 10.955 0 0 1 156.4 8.32 A 9.034 9.034 0 0 1 158.317 8.516 A 7.481 7.481 0 0 1 159.66 8.94 A 10.401 10.401 0 0 1 161.375 9.857 A 8.841 8.841 0 0 1 162.2 10.48 Z M 48.44 23.08 L 48.44 0 L 52.04 0 L 52.04 22.72 Q 52.04 24.016 52.364 24.909 A 3.189 3.189 0 0 0 52.94 25.92 Q 53.84 26.96 55.44 26.96 Q 56.2 26.96 56.94 26.78 A 8.877 8.877 0 0 0 57.525 26.617 Q 57.806 26.528 58.045 26.428 A 4.777 4.777 0 0 0 58.2 26.36 L 59.08 29.28 A 7.26 7.26 0 0 1 58.439 29.527 Q 58.12 29.633 57.755 29.729 A 13.992 13.992 0 0 1 57.3 29.84 A 9.527 9.527 0 0 1 56.038 30.034 A 12.205 12.205 0 0 1 54.96 30.08 A 8.345 8.345 0 0 1 53.004 29.859 A 7.018 7.018 0 0 1 51.64 29.38 A 5.073 5.073 0 0 1 49.51 27.474 A 6.342 6.342 0 0 1 49.3 27.12 Q 48.44 25.56 48.44 23.08 Z M 134.52 23.08 L 134.52 0 L 138.12 0 L 138.12 22.72 Q 138.12 24.016 138.444 24.909 A 3.189 3.189 0 0 0 139.02 25.92 Q 139.92 26.96 141.52 26.96 Q 142.28 26.96 143.02 26.78 A 8.877 8.877 0 0 0 143.605 26.617 Q 143.886 26.528 144.125 26.428 A 4.777 4.777 0 0 0 144.28 26.36 L 145.16 29.28 A 7.26 7.26 0 0 1 144.519 29.527 Q 144.2 29.633 143.835 29.729 A 13.992 13.992 0 0 1 143.38 29.84 A 9.527 9.527 0 0 1 142.118 30.034 A 12.205 12.205 0 0 1 141.04 30.08 A 8.345 8.345 0 0 1 139.084 29.859 A 7.018 7.018 0 0 1 137.72 29.38 A 5.073 5.073 0 0 1 135.59 27.474 A 6.342 6.342 0 0 1 135.38 27.12 Q 134.52 25.56 134.52 23.08 Z M 90.16 29.6 L 86.56 29.6 L 86.56 8.8 L 90.04 8.8 L 90.04 13.32 Q 90.56 12 91.44 10.86 Q 92.32 9.72 93.64 9.02 A 5.927 5.927 0 0 1 95.512 8.41 A 7.784 7.784 0 0 1 96.72 8.32 Q 97.32 8.32 97.92 8.38 A 7.589 7.589 0 0 1 98.342 8.433 Q 98.542 8.465 98.713 8.505 A 3.527 3.527 0 0 1 98.92 8.56 L 97.84 12.28 A 3.905 3.905 0 0 0 96.982 12.035 Q 96.585 11.967 96.134 11.961 A 6.64 6.64 0 0 0 96.04 11.96 A 5.183 5.183 0 0 0 93.388 12.698 A 6.244 6.244 0 0 0 93.22 12.8 A 5.361 5.361 0 0 0 91.831 14.079 Q 91.39 14.648 91.031 15.377 A 9.171 9.171 0 0 0 91.02 15.4 A 7.728 7.728 0 0 0 90.432 17.124 Q 90.247 17.957 90.188 18.931 A 15.636 15.636 0 0 0 90.16 19.88 L 90.16 29.6 Z M 176.24 29.6 L 172.64 29.6 L 172.64 8.8 L 176.12 8.8 L 176.12 13.32 Q 176.64 12 177.52 10.86 Q 178.4 9.72 179.72 9.02 A 5.927 5.927 0 0 1 181.592 8.41 A 7.784 7.784 0 0 1 182.8 8.32 Q 183.4 8.32 184 8.38 A 7.589 7.589 0 0 1 184.422 8.433 Q 184.622 8.465 184.793 8.505 A 3.527 3.527 0 0 1 185 8.56 L 183.92 12.28 A 3.905 3.905 0 0 0 183.062 12.035 Q 182.665 11.967 182.214 11.961 A 6.64 6.64 0 0 0 182.12 11.96 A 5.183 5.183 0 0 0 179.468 12.698 A 6.244 6.244 0 0 0 179.3 12.8 A 5.361 5.361 0 0 0 177.911 14.079 Q 177.47 14.648 177.111 15.377 A 9.171 9.171 0 0 0 177.1 15.4 A 7.728 7.728 0 0 0 176.512 17.124 Q 176.327 17.957 176.268 18.931 A 15.636 15.636 0 0 0 176.24 19.88 L 176.24 29.6 Z M 33.48 30.08 Q 30.52 30.08 28.16 28.7 Q 25.8 27.32 24.46 24.86 A 10.98 10.98 0 0 1 23.226 20.941 A 13.928 13.928 0 0 1 23.12 19.2 A 14.002 14.002 0 0 1 23.38 16.436 A 10.409 10.409 0 0 1 24.48 13.4 Q 25.84 10.96 28.2 9.64 A 10.468 10.468 0 0 1 32.848 8.336 A 12.53 12.53 0 0 1 33.48 8.32 Q 36.4 8.32 38.74 9.64 Q 41.08 10.96 42.46 13.38 A 10.318 10.318 0 0 1 43.646 16.757 A 13.817 13.817 0 0 1 43.84 19.12 A 13.674 13.674 0 0 1 43.541 22.044 A 10.502 10.502 0 0 1 42.48 24.9 Q 41.12 27.36 38.78 28.72 A 10.103 10.103 0 0 1 34.39 30.047 A 12.29 12.29 0 0 1 33.48 30.08 Z M 33.48 26.88 A 7.497 7.497 0 0 0 35.57 26.604 A 5.6 5.6 0 0 0 38.4 24.74 Q 40.16 22.6 40.16 19.2 A 8.55 8.55 0 0 0 39.67 16.286 A 8.006 8.006 0 0 0 39.28 15.38 A 7.679 7.679 0 0 0 37.611 13.153 A 7.268 7.268 0 0 0 36.9 12.58 Q 35.4 11.52 33.48 11.52 Q 30.32 11.52 28.56 13.6 Q 26.867 15.601 26.803 18.86 A 13.147 13.147 0 0 0 26.8 19.12 Q 26.8 21.2 27.68 22.98 A 7.775 7.775 0 0 0 29.092 24.996 A 7.051 7.051 0 0 0 30.06 25.82 Q 31.56 26.88 33.48 26.88 Z M 75.8 24.28 L 75.8 13.12 Q 74.72 12.36 73.42 11.9 Q 72.12 11.44 70.68 11.44 Q 68.76 11.44 67.3 12.42 A 6.52 6.52 0 0 0 65.292 14.59 A 7.985 7.985 0 0 0 65 15.14 Q 64.16 16.88 64.16 19.2 Q 64.16 21.44 65 23.18 A 7.041 7.041 0 0 0 66.242 24.998 A 6.279 6.279 0 0 0 67.32 25.9 Q 68.8 26.88 70.64 26.88 Q 72.16 26.88 73.52 26.14 A 7.78 7.78 0 0 0 75.408 24.719 A 7.228 7.228 0 0 0 75.8 24.28 Z M 161.88 24.28 L 161.88 13.12 Q 160.8 12.36 159.5 11.9 Q 158.2 11.44 156.76 11.44 Q 154.84 11.44 153.38 12.42 A 6.52 6.52 0 0 0 151.372 14.59 A 7.985 7.985 0 0 0 151.08 15.14 Q 150.24 16.88 150.24 19.2 Q 150.24 21.44 151.08 23.18 A 7.041 7.041 0 0 0 152.322 24.998 A 6.279 6.279 0 0 0 153.4 25.9 Q 154.88 26.88 156.72 26.88 Q 158.24 26.88 159.6 26.14 A 7.78 7.78 0 0 0 161.488 24.719 A 7.228 7.228 0 0 0 161.88 24.28 Z M 189.64 17.76 L 201.04 17.76 A 9.742 9.742 0 0 0 200.878 15.926 Q 200.68 14.892 200.238 14.083 A 4.969 4.969 0 0 0 199.52 13.08 A 4.995 4.995 0 0 0 196.736 11.57 A 7.358 7.358 0 0 0 195.32 11.44 A 5.432 5.432 0 0 0 193.275 11.814 A 5.01 5.01 0 0 0 191.48 13.06 Q 189.96 14.68 189.64 17.76 Z" vector-effect="non-scaling-stroke"/></g></svg>