<svg xmlns="http://www.w3.org/2000/svg" xmlns:xlink="http://www.w3.org/1999/xlink" style="margin:auto;background:#7aceff;display:block;z-index:1;position:relative" width="1516" height="739" preserveAspectRatio="xMidYMid" viewBox="0 0 1516 739">
<g transform="translate(758,369.5) scale(1,1) translate(-758,-369.5)"><g transform="translate(-100 446.7090455769441) rotate(0)">
  <animateTransform attributeName="transform" type="translate" keyTimes="0;1" values="-100 446.7090455769441;1516 446.7090455769441" dur="250s" repeatCount="indefinite" begin="-191.59974511687406s"></animateTransform>
  <path d="M84.717,33.597c0.791-2.503,1.186-5.138,1.186-7.773C85.903,11.594,74.308,0,60.079,0 c-9.881,0-18.445,5.534-22.793,13.702c-1.581-0.527-3.426-0.791-5.138-0.791c-9.486,0-17.128,7.642-17.128,17.128 c0,1.186,0.132,2.372,0.395,3.426C6.719,34.783,0,42.424,0,51.515C0,61.66,8.169,69.829,18.314,69.829h63.373 C91.831,69.829,100,61.66,100,51.515C99.868,42.556,93.281,35.046,84.717,33.597z" fill="#bddeff" transform="scale(0.44000000000000006)"></path>
</g><g transform="translate(-100 580.4280153148127) rotate(0)">
  <animateTransform attributeName="transform" type="translate" keyTimes="0;1" values="-100 580.4280153148127;1516 580.4280153148127" dur="250s" repeatCount="indefinite" begin="-44.94790596409773s"></animateTransform>
  <path d="M84.717,33.597c0.791-2.503,1.186-5.138,1.186-7.773C85.903,11.594,74.308,0,60.079,0 c-9.881,0-18.445,5.534-22.793,13.702c-1.581-0.527-3.426-0.791-5.138-0.791c-9.486,0-17.128,7.642-17.128,17.128 c0,1.186,0.132,2.372,0.395,3.426C6.719,34.783,0,42.424,0,51.515C0,61.66,8.169,69.829,18.314,69.829h63.373 C91.831,69.829,100,61.66,100,51.515C99.868,42.556,93.281,35.046,84.717,33.597z" fill="#bddeff" transform="scale(0.44000000000000006)"></path>
</g><g transform="translate(-100 240.30746297575004) rotate(0)">
  <animateTransform attributeName="transform" type="translate" keyTimes="0;1" values="-100 240.30746297575004;1516 240.30746297575004" dur="250s" repeatCount="indefinite" begin="-235.97319274383395s"></animateTransform>
  <path d="M84.717,33.597c0.791-2.503,1.186-5.138,1.186-7.773C85.903,11.594,74.308,0,60.079,0 c-9.881,0-18.445,5.534-22.793,13.702c-1.581-0.527-3.426-0.791-5.138-0.791c-9.486,0-17.128,7.642-17.128,17.128 c0,1.186,0.132,2.372,0.395,3.426C6.719,34.783,0,42.424,0,51.515C0,61.66,8.169,69.829,18.314,69.829h63.373 C91.831,69.829,100,61.66,100,51.515C99.868,42.556,93.281,35.046,84.717,33.597z" fill="#bddeff" transform="scale(0.44000000000000006)"></path>
</g><g transform="translate(-100 402.6318051713007) rotate(0)">
  <animateTransform attributeName="transform" type="translate" keyTimes="0;1" values="-100 402.6318051713007;1516 402.6318051713007" dur="250s" repeatCount="indefinite" begin="-198.65857082925407s"></animateTransform>
  <path d="M84.717,33.597c0.791-2.503,1.186-5.138,1.186-7.773C85.903,11.594,74.308,0,60.079,0 c-9.881,0-18.445,5.534-22.793,13.702c-1.581-0.527-3.426-0.791-5.138-0.791c-9.486,0-17.128,7.642-17.128,17.128 c0,1.186,0.132,2.372,0.395,3.426C6.719,34.783,0,42.424,0,51.515C0,61.66,8.169,69.829,18.314,69.829h63.373 C91.831,69.829,100,61.66,100,51.515C99.868,42.556,93.281,35.046,84.717,33.597z" fill="#bddeff" transform="scale(0.44000000000000006)"></path>
</g><g transform="translate(-100 476.19341692328874) rotate(0)">
  <animateTransform attributeName="transform" type="translate" keyTimes="0;1" values="-100 476.19341692328874;1516 476.19341692328874" dur="125s" repeatCount="indefinite" begin="-167.1753010052248s"></animateTransform>
  <path d="M84.717,33.597c0.791-2.503,1.186-5.138,1.186-7.773C85.903,11.594,74.308,0,60.079,0 c-9.881,0-18.445,5.534-22.793,13.702c-1.581-0.527-3.426-0.791-5.138-0.791c-9.486,0-17.128,7.642-17.128,17.128 c0,1.186,0.132,2.372,0.395,3.426C6.719,34.783,0,42.424,0,51.515C0,61.66,8.169,69.829,18.314,69.829h63.373 C91.831,69.829,100,61.66,100,51.515C99.868,42.556,93.281,35.046,84.717,33.597z" fill="#ffffff" transform="scale(0.5599999999999999)"></path>
</g><g transform="translate(-100 258.70313958568494) rotate(0)">
  <animateTransform attributeName="transform" type="translate" keyTimes="0;1" values="-100 258.70313958568494;1516 258.70313958568494" dur="125s" repeatCount="indefinite" begin="-234.46212161689772s"></animateTransform>
  <path d="M84.717,33.597c0.791-2.503,1.186-5.138,1.186-7.773C85.903,11.594,74.308,0,60.079,0 c-9.881,0-18.445,5.534-22.793,13.702c-1.581-0.527-3.426-0.791-5.138-0.791c-9.486,0-17.128,7.642-17.128,17.128 c0,1.186,0.132,2.372,0.395,3.426C6.719,34.783,0,42.424,0,51.515C0,61.66,8.169,69.829,18.314,69.829h63.373 C91.831,69.829,100,61.66,100,51.515C99.868,42.556,93.281,35.046,84.717,33.597z" fill="#ffffff" transform="scale(0.5599999999999999)"></path>
</g><g transform="translate(-100 236.56737043865454) rotate(0)">
  <animateTransform attributeName="transform" type="translate" keyTimes="0;1" values="-100 236.56737043865454;1516 236.56737043865454" dur="125s" repeatCount="indefinite" begin="-124.48841658565935s"></animateTransform>
  <path d="M84.717,33.597c0.791-2.503,1.186-5.138,1.186-7.773C85.903,11.594,74.308,0,60.079,0 c-9.881,0-18.445,5.534-22.793,13.702c-1.581-0.527-3.426-0.791-5.138-0.791c-9.486,0-17.128,7.642-17.128,17.128 c0,1.186,0.132,2.372,0.395,3.426C6.719,34.783,0,42.424,0,51.515C0,61.66,8.169,69.829,18.314,69.829h63.373 C91.831,69.829,100,61.66,100,51.515C99.868,42.556,93.281,35.046,84.717,33.597z" fill="#ffffff" transform="scale(0.5599999999999999)"></path>
</g><g transform="translate(-100 490.78682709713905) rotate(0)">
  <animateTransform attributeName="transform" type="translate" keyTimes="0;1" values="-100 490.78682709713905;1516 490.78682709713905" dur="125s" repeatCount="indefinite" begin="-199.40242035953574s"></animateTransform>
  <path d="M84.717,33.597c0.791-2.503,1.186-5.138,1.186-7.773C85.903,11.594,74.308,0,60.079,0 c-9.881,0-18.445,5.534-22.793,13.702c-1.581-0.527-3.426-0.791-5.138-0.791c-9.486,0-17.128,7.642-17.128,17.128 c0,1.186,0.132,2.372,0.395,3.426C6.719,34.783,0,42.424,0,51.515C0,61.66,8.169,69.829,18.314,69.829h63.373 C91.831,69.829,100,61.66,100,51.515C99.868,42.556,93.281,35.046,84.717,33.597z" fill="#ffffff" transform="scale(0.5599999999999999)"></path>
</g><g transform="translate(-100 104.9134470953994) rotate(0)">
  <animateTransform attributeName="transform" type="translate" keyTimes="0;1" values="-100 104.9134470953994;1516 104.9134470953994" dur="125s" repeatCount="indefinite" begin="-6.9244761856317725s"></animateTransform>
  <path d="M84.717,33.597c0.791-2.503,1.186-5.138,1.186-7.773C85.903,11.594,74.308,0,60.079,0 c-9.881,0-18.445,5.534-22.793,13.702c-1.581-0.527-3.426-0.791-5.138-0.791c-9.486,0-17.128,7.642-17.128,17.128 c0,1.186,0.132,2.372,0.395,3.426C6.719,34.783,0,42.424,0,51.515C0,61.66,8.169,69.829,18.314,69.829h63.373 C91.831,69.829,100,61.66,100,51.515C99.868,42.556,93.281,35.046,84.717,33.597z" fill="#ffffff" transform="scale(0.5599999999999999)"></path>
</g><g transform="translate(-100 656.0998223596805) rotate(0)">
  <animateTransform attributeName="transform" type="translate" keyTimes="0;1" values="-100 656.0998223596805;1516 656.0998223596805" dur="83.33333333333333s" repeatCount="indefinite" begin="-78.30513682388023s"></animateTransform>
  <path d="M84.717,33.597c0.791-2.503,1.186-5.138,1.186-7.773C85.903,11.594,74.308,0,60.079,0 c-9.881,0-18.445,5.534-22.793,13.702c-1.581-0.527-3.426-0.791-5.138-0.791c-9.486,0-17.128,7.642-17.128,17.128 c0,1.186,0.132,2.372,0.395,3.426C6.719,34.783,0,42.424,0,51.515C0,61.66,8.169,69.829,18.314,69.829h63.373 C91.831,69.829,100,61.66,100,51.515C99.868,42.556,93.281,35.046,84.717,33.597z" fill="#f1f2f3" transform="scale(0.68)"></path>
</g><g transform="translate(-100 204.14973434780865) rotate(0)">
  <animateTransform attributeName="transform" type="translate" keyTimes="0;1" values="-100 204.14973434780865;1516 204.14973434780865" dur="83.33333333333333s" repeatCount="indefinite" begin="-120.31091553730545s"></animateTransform>
  <path d="M84.717,33.597c0.791-2.503,1.186-5.138,1.186-7.773C85.903,11.594,74.308,0,60.079,0 c-9.881,0-18.445,5.534-22.793,13.702c-1.581-0.527-3.426-0.791-5.138-0.791c-9.486,0-17.128,7.642-17.128,17.128 c0,1.186,0.132,2.372,0.395,3.426C6.719,34.783,0,42.424,0,51.515C0,61.66,8.169,69.829,18.314,69.829h63.373 C91.831,69.829,100,61.66,100,51.515C99.868,42.556,93.281,35.046,84.717,33.597z" fill="#f1f2f3" transform="scale(0.68)"></path>
</g><g transform="translate(-100 707.0461834044282) rotate(0)">
  <animateTransform attributeName="transform" type="translate" keyTimes="0;1" values="-100 707.0461834044282;1516 707.0461834044282" dur="83.33333333333333s" repeatCount="indefinite" begin="-229.86141210237398s"></animateTransform>
  <path d="M84.717,33.597c0.791-2.503,1.186-5.138,1.186-7.773C85.903,11.594,74.308,0,60.079,0 c-9.881,0-18.445,5.534-22.793,13.702c-1.581-0.527-3.426-0.791-5.138-0.791c-9.486,0-17.128,7.642-17.128,17.128 c0,1.186,0.132,2.372,0.395,3.426C6.719,34.783,0,42.424,0,51.515C0,61.66,8.169,69.829,18.314,69.829h63.373 C91.831,69.829,100,61.66,100,51.515C99.868,42.556,93.281,35.046,84.717,33.597z" fill="#f1f2f3" transform="scale(0.68)"></path>
</g><g transform="translate(-100 118.20358947061283) rotate(0)">
  <animateTransform attributeName="transform" type="translate" keyTimes="0;1" values="-100 118.20358947061283;1516 118.20358947061283" dur="83.33333333333333s" repeatCount="indefinite" begin="-176.1243033437976s"></animateTransform>
  <path d="M84.717,33.597c0.791-2.503,1.186-5.138,1.186-7.773C85.903,11.594,74.308,0,60.079,0 c-9.881,0-18.445,5.534-22.793,13.702c-1.581-0.527-3.426-0.791-5.138-0.791c-9.486,0-17.128,7.642-17.128,17.128 c0,1.186,0.132,2.372,0.395,3.426C6.719,34.783,0,42.424,0,51.515C0,61.66,8.169,69.829,18.314,69.829h63.373 C91.831,69.829,100,61.66,100,51.515C99.868,42.556,93.281,35.046,84.717,33.597z" fill="#f1f2f3" transform="scale(0.68)"></path>
</g><g transform="translate(-100 590.471013989501) rotate(0)">
  <animateTransform attributeName="transform" type="translate" keyTimes="0;1" values="-100 590.471013989501;1516 590.471013989501" dur="83.33333333333333s" repeatCount="indefinite" begin="-176.02223599760526s"></animateTransform>
  <path d="M84.717,33.597c0.791-2.503,1.186-5.138,1.186-7.773C85.903,11.594,74.308,0,60.079,0 c-9.881,0-18.445,5.534-22.793,13.702c-1.581-0.527-3.426-0.791-5.138-0.791c-9.486,0-17.128,7.642-17.128,17.128 c0,1.186,0.132,2.372,0.395,3.426C6.719,34.783,0,42.424,0,51.515C0,61.66,8.169,69.829,18.314,69.829h63.373 C91.831,69.829,100,61.66,100,51.515C99.868,42.556,93.281,35.046,84.717,33.597z" fill="#f1f2f3" transform="scale(0.68)"></path>
</g><g transform="translate(-100 458.3266740963147) rotate(0)">
  <animateTransform attributeName="transform" type="translate" keyTimes="0;1" values="-100 458.3266740963147;1516 458.3266740963147" dur="62.5s" repeatCount="indefinite" begin="-123.43036090927562s"></animateTransform>
  <path d="M84.717,33.597c0.791-2.503,1.186-5.138,1.186-7.773C85.903,11.594,74.308,0,60.079,0 c-9.881,0-18.445,5.534-22.793,13.702c-1.581-0.527-3.426-0.791-5.138-0.791c-9.486,0-17.128,7.642-17.128,17.128 c0,1.186,0.132,2.372,0.395,3.426C6.719,34.783,0,42.424,0,51.515C0,61.66,8.169,69.829,18.314,69.829h63.373 C91.831,69.829,100,61.66,100,51.515C99.868,42.556,93.281,35.046,84.717,33.597z" fill="#bddeff" transform="scale(0.8)"></path>
</g><g transform="translate(-100 637.473804329648) rotate(0)">
  <animateTransform attributeName="transform" type="translate" keyTimes="0;1" values="-100 637.473804329648;1516 637.473804329648" dur="62.5s" repeatCount="indefinite" begin="-25.468882287060985s"></animateTransform>
  <path d="M84.717,33.597c0.791-2.503,1.186-5.138,1.186-7.773C85.903,11.594,74.308,0,60.079,0 c-9.881,0-18.445,5.534-22.793,13.702c-1.581-0.527-3.426-0.791-5.138-0.791c-9.486,0-17.128,7.642-17.128,17.128 c0,1.186,0.132,2.372,0.395,3.426C6.719,34.783,0,42.424,0,51.515C0,61.66,8.169,69.829,18.314,69.829h63.373 C91.831,69.829,100,61.66,100,51.515C99.868,42.556,93.281,35.046,84.717,33.597z" fill="#bddeff" transform="scale(0.8)"></path>
</g><g transform="translate(-100 117.34163435045771) rotate(0)">
  <animateTransform attributeName="transform" type="translate" keyTimes="0;1" values="-100 117.34163435045771;1516 117.34163435045771" dur="62.5s" repeatCount="indefinite" begin="-178.64735007418292s"></animateTransform>
  <path d="M84.717,33.597c0.791-2.503,1.186-5.138,1.186-7.773C85.903,11.594,74.308,0,60.079,0 c-9.881,0-18.445,5.534-22.793,13.702c-1.581-0.527-3.426-0.791-5.138-0.791c-9.486,0-17.128,7.642-17.128,17.128 c0,1.186,0.132,2.372,0.395,3.426C6.719,34.783,0,42.424,0,51.515C0,61.66,8.169,69.829,18.314,69.829h63.373 C91.831,69.829,100,61.66,100,51.515C99.868,42.556,93.281,35.046,84.717,33.597z" fill="#bddeff" transform="scale(0.8)"></path>
</g><g transform="translate(-100 82.45454423231017) rotate(0)">
  <animateTransform attributeName="transform" type="translate" keyTimes="0;1" values="-100 82.45454423231017;1516 82.45454423231017" dur="62.5s" repeatCount="indefinite" begin="-208.09897385239444s"></animateTransform>
  <path d="M84.717,33.597c0.791-2.503,1.186-5.138,1.186-7.773C85.903,11.594,74.308,0,60.079,0 c-9.881,0-18.445,5.534-22.793,13.702c-1.581-0.527-3.426-0.791-5.138-0.791c-9.486,0-17.128,7.642-17.128,17.128 c0,1.186,0.132,2.372,0.395,3.426C6.719,34.783,0,42.424,0,51.515C0,61.66,8.169,69.829,18.314,69.829h63.373 C91.831,69.829,100,61.66,100,51.515C99.868,42.556,93.281,35.046,84.717,33.597z" fill="#bddeff" transform="scale(0.8)"></path>
</g><g transform="translate(-100 553.0286080472256) rotate(0)">
  <animateTransform attributeName="transform" type="translate" keyTimes="0;1" values="-100 553.0286080472256;1516 553.0286080472256" dur="62.5s" repeatCount="indefinite" begin="-125.46488817679746s"></animateTransform>
  <path d="M84.717,33.597c0.791-2.503,1.186-5.138,1.186-7.773C85.903,11.594,74.308,0,60.079,0 c-9.881,0-18.445,5.534-22.793,13.702c-1.581-0.527-3.426-0.791-5.138-0.791c-9.486,0-17.128,7.642-17.128,17.128 c0,1.186,0.132,2.372,0.395,3.426C6.719,34.783,0,42.424,0,51.515C0,61.66,8.169,69.829,18.314,69.829h63.373 C91.831,69.829,100,61.66,100,51.515C99.868,42.556,93.281,35.046,84.717,33.597z" fill="#bddeff" transform="scale(0.8)"></path>
</g></g>
</svg>